<?xml version="1.0" encoding="utf-8"?>
<!-- Generator: Adobe Illustrator 16.0.0, SVG Export Plug-In . SVG Version: 6.00 Build 0)  -->
<!DOCTYPE svg PUBLIC "-//W3C//DTD SVG 1.1//EN" "http://www.w3.org/Graphics/SVG/1.1/DTD/svg11.dtd">
<svg version="1.1" id="Layer_1" xmlns="http://www.w3.org/2000/svg" xmlns:xlink="http://www.w3.org/1999/xlink" x="0px" y="0px"
	 width="30px" height="30px" viewBox="0 0 30 30" enable-background="new 0 0 30 30" xml:space="preserve">
<g>
	<path fill="#FFFFFF" d="M8.904,22.793c0,0-1.196,0.486-1.721-0.186c-0.511-0.65,0.206-2.223,0.206-2.223l2.107-4.236l8.423-8.477
		c0,0,0.926-1.186,2.111-0.314C21.218,8.229,22.693,9.9,22.693,9.9s0.822,0.895-0.226,2.111c-1.409,1.633-9.048,8.736-9.048,8.736
		L8.904,22.793z M9.742,21.746l3.798-1.895l-0.847-0.822l6.437-6.533l0.929,0.908l0.407-0.453l-3.341-3.367l-0.46,0.484l0.829,0.818
		l-6.568,6.496l-0.848-0.775l-1.796,3.432L9.742,21.746z"/>
	<polygon fill="#FFFFFF" points="12.106,18.545 11.404,17.818 17.938,11.344 18.703,12.131 	"/>
</g>
</svg>
